<?xml version="1.0" encoding="UTF-8" standalone="no"?>
<!-- Generator: Adobe Illustrator 26.0.1, SVG Export Plug-In . SVG Version: 6.00 Build 0)  -->

<svg
   version="1.1"
   id="Capa_1"
   x="0px"
   y="0px"
   viewBox="0 0 1536 1536"
   style="enable-background:new 0 0 1536 1536;"
   xml:space="preserve"
   sodipodi:docname="f752c6bd-3fb5-40a3-a31f-9c1b499a1491.svgz"
   xmlns:inkscape="http://www.inkscape.org/namespaces/inkscape"
   xmlns:sodipodi="http://sodipodi.sourceforge.net/DTD/sodipodi-0.dtd"
   xmlns="http://www.w3.org/2000/svg"
   xmlns:svg="http://www.w3.org/2000/svg"><defs
   id="defs7" /><sodipodi:namedview
   id="namedview7"
   pagecolor="#ffffff"
   bordercolor="#000000"
   borderopacity="0.25"
   inkscape:showpageshadow="2"
   inkscape:pageopacity="0.0"
   inkscape:pagecheckerboard="0"
   inkscape:deskcolor="#d1d1d1" />
<style
   type="text/css"
   id="style1">
	.st0{fill:#FCB01D;}
	.st1{fill:#1B1B1B;}
	.st2{fill:#FFFFFF;}
</style>
<g
   id="g7">
	<g
   id="g1">
		<rect
   y="0"
   class="st0"
   width="1536"
   height="1536"
   id="rect1" />
	</g>
	<g
   id="g3">
		<g
   id="g2">
			<path
   class="st2"
   d="M972.3,654.6L488.9,942.7c-17.2,10.3-17.2,35.2,0,45.4l158.1,94.1l325.3,194c17.6,10.5,40-2.2,40-22.7     v-156.4c0-19.1-10.1-36.8-26.5-46.6l-142.7-85.2l142.7-85c16.4-9.8,26.5-27.5,26.5-46.6V677.3     C1012.2,656.8,989.9,644.1,972.3,654.6z"
   id="path1" />
			<path
   class="st2"
   d="M972.3,259.8L477.3,554.9c-16.4,9.8-26.5,27.5-26.5,46.6v156.3c0,20.5,22.3,33.2,40,22.7l495.1-295.2     c16.4-9.8,26.5-27.5,26.5-46.6V282.5C1012.3,262,989.9,249.3,972.3,259.8z"
   id="path2" />
		</g>
	</g>
	<g
   id="g4">
		<rect
   y="0"
   class="st0"
   width="1536"
   height="1536"
   id="rect3" />
	</g>
	<g
   id="g6">
		<g
   id="g5">
			<path
   class="st2"
   d="M972.3,654.6L488.9,942.7c-17.2,10.3-17.2,35.2,0,45.4l158.1,94.1l325.3,194c17.6,10.5,40-2.2,40-22.7     v-156.4c0-19.1-10.1-36.8-26.5-46.6l-142.7-85.2l142.7-85c16.4-9.8,26.5-27.5,26.5-46.6V677.3     C1012.2,656.8,989.9,644.1,972.3,654.6z"
   id="path4" />
			<path
   class="st2"
   d="M972.3,259.8L477.3,554.9c-16.4,9.8-26.5,27.5-26.5,46.6v156.3c0,20.5,22.3,33.2,40,22.7l495.1-295.2     c16.4-9.8,26.5-27.5,26.5-46.6V282.5C1012.3,262,989.9,249.3,972.3,259.8z"
   id="path5" />
		</g>
	</g>
</g>
</svg>
