<svg viewBox="0 0 232 60" xmlns="http://www.w3.org/2000/svg" xml:space="preserve" style="fill-rule:evenodd;clip-rule:evenodd;stroke-linejoin:round;stroke-miterlimit:2"><path d="M30.643 23.358 2.27 40.24c-.467.28-.754.786-.754 1.33s.287 1.049.754 1.33l9.29 5.514 19.083 11.368a1.55 1.55 0 0 0 2.342-1.326V49.319a3.176 3.176 0 0 0-1.556-2.732l-8.382-5.021 8.382-4.981a3.184 3.184 0 0 0 1.556-2.732v-9.169c0-.848-.699-1.545-1.548-1.545-.28 0-.554.076-.794.219ZM30.643.218 1.556 17.512A3.183 3.183 0 0 0 0 20.213v9.193a1.561 1.561 0 0 0 2.351 1.318l29.086-17.286a3.185 3.185 0 0 0 1.556-2.733V1.552a1.56 1.56 0 0 0-2.35-1.334ZM79.168 18.329H52.595c-.712 0-1.297.584-1.297 1.294v29.955c0 .71.585 1.294 1.297 1.294h6.582c.712 0 1.298-.584 1.298-1.294V39.553h17.964c.711 0 1.297-.584 1.297-1.294v-5.571c0-.709-.586-1.293-1.297-1.293H60.45v-4.851h18.718c.712 0 1.297-.584 1.297-1.294v-5.66a1.3 1.3 0 0 0-1.297-1.261ZM111.124 19.914a21.69 21.69 0 0 0-9.906-2.07 21.221 21.221 0 0 0-9.728 2.07 14.473 14.473 0 0 0-6.21 5.821 17.66 17.66 0 0 0-2.148 8.894 17.633 17.633 0 0 0 2.148 8.893 14.53 14.53 0 0 0 6.226 5.797 21.217 21.217 0 0 0 9.728 2.062 21.685 21.685 0 0 0 9.89-2.062 14.532 14.532 0 0 0 6.21-5.829 17.643 17.643 0 0 0 2.14-8.894c.08-3.1-.658-6.167-2.14-8.893a14.462 14.462 0 0 0-6.21-5.789Zm-2.14 19.639a4.27 4.27 0 0 1-2.602 2.425 16.11 16.11 0 0 1-5.164.655 15.61 15.61 0 0 1-5.115-.655 4.103 4.103 0 0 1-2.505-2.425 13.7 13.7 0 0 1-.706-4.948c-.074-1.69.165-3.378.706-4.981a4.096 4.096 0 0 1 2.505-2.377 15.61 15.61 0 0 1 5.115-.655 16.11 16.11 0 0 1 5.164.655 4.262 4.262 0 0 1 2.602 2.377c.576 1.595.832 3.287.754 4.981a12.906 12.906 0 0 1-.754 4.948ZM197.969 49.319l-12.971-29.915a1.873 1.873 0 0 0-1.702-1.115h-10.627a1.858 1.858 0 0 0-1.695 1.115l-12.403 28.614a.892.892 0 0 1-1.532.194L147.028 35.34a.96.96 0 0 1-.195-.574.917.917 0 0 1 .187-.558l10.749-14.124c.146-.191.225-.424.225-.663 0-.599-.494-1.092-1.095-1.092H148.09a1.865 1.865 0 0 0-1.516.809l-6.713 9.492a.616.616 0 0 1-1.005.016l-7.142-9.549a1.866 1.866 0 0 0-1.491-.744h-8.82c-.6.007-1.09.501-1.09 1.1 0 .239.078.472.223.663l10.789 13.898a.885.885 0 0 1 .195.566.902.902 0 0 1-.195.566l-10.789 13.963a1.09 1.09 0 0 0-.232.671c0 .599.494 1.092 1.095 1.092H130.199a1.843 1.843 0 0 0 1.507-.809l6.761-9.54a.617.617 0 0 1 1.005-.016l7.102 9.621c.347.47.898.749 1.483.752h18.329a1.843 1.843 0 0 0 1.702-1.132l1.946-4.641a.414.414 0 0 1 .381-.251h14.94a.407.407 0 0 1 .381.259l1.905 4.617a1.862 1.862 0 0 0 1.719 1.148h7.628a1.09 1.09 0 0 0 .981-1.561Zm-15.97-12.701h-8.163a.171.171 0 0 1-.154-.235l1.824-4.333 2.107-5.523a.317.317 0 0 1 .3-.21c.132 0 .251.081.3.202l2.157 5.531 1.791 4.333c.013.025.02.053.02.081a.18.18 0 0 1-.179.178h-.003v-.024ZM231.887 49.319l-3.243-6.581a14.38 14.38 0 0 0-2.035-3.121 6.887 6.887 0 0 0-3.413-1.811.284.284 0 0 1-.219-.283.301.301 0 0 1 .26-.291 12.984 12.984 0 0 0 4.807-1.496 6.934 6.934 0 0 0 2.845-3.015c.629-1.389.937-2.9.9-4.423a9.503 9.503 0 0 0-1.483-5.417 9.226 9.226 0 0 0-4.41-3.371 19.648 19.648 0 0 0-7.296-1.173h-17.697c-.711 0-1.297.584-1.297 1.294v29.947c0 .71.586 1.294 1.297 1.294h6.559c.711 0 1.297-.584 1.297-1.294v-9.783h3.753c.948-.026 1.895.064 2.821.267.62.158 1.183.489 1.621.954a7.649 7.649 0 0 1 1.216 1.892l3.381 6.897a1.892 1.892 0 0 0 1.702 1.067h7.642c.6 0 1.094-.493 1.094-1.091a1.1 1.1 0 0 0-.102-.462Zm-10.539-16.881a5.11 5.11 0 0 1-2.829.582h-9.76v-6.468h9.784a4.781 4.781 0 0 1 2.829.63c.541.421.811 1.278.811 2.571.011 1.386-.259 2.272-.811 2.66l-.024.025Z" style="fill:#fcb01d;fill-rule:nonzero"/></svg>