<?xml version="1.0" encoding="UTF-8" standalone="no"?>
<!DOCTYPE svg PUBLIC "-//W3C//DTD SVG 1.1//EN" "http://www.w3.org/Graphics/SVG/1.1/DTD/svg11.dtd">
<svg width="100%" height="100%" viewBox="0 0 96 96" version="1.1" xmlns="http://www.w3.org/2000/svg" xmlns:xlink="http://www.w3.org/1999/xlink" xml:space="preserve" xmlns:serif="http://www.serif.com/" style="fill-rule:evenodd;clip-rule:evenodd;stroke-linejoin:round;stroke-miterlimit:2;">
    <g>
        <g transform="matrix(1.27981,0,0,1.27981,7.87607,0.00696795)">
            <path d="M62.001,62.026C61.75,61.728 61.443,61.482 61.098,61.305C60.753,61.126 60.375,61.018 59.988,60.982C59.602,60.949 59.21,60.993 58.84,61.109C58.47,61.228 58.125,61.416 57.83,61.667C57.752,61.73 57.675,61.794 57.601,61.857C57.545,61.904 57.49,61.949 57.435,61.993C56.576,62.691 55.682,63.345 54.755,63.95L54.633,64.03C54.429,64.162 54.225,64.292 54.018,64.416C53.968,64.447 53.924,64.474 53.877,64.502C53.83,64.53 53.786,64.557 53.741,64.585L53.661,64.634L53.518,64.72C53.471,64.748 53.427,64.775 53.38,64.8C52.833,65.118 52.276,65.421 51.71,65.706L51.569,65.777L51.373,65.877C51.287,65.918 51.202,65.96 51.116,66.001L51.097,66.012C51.011,66.053 50.926,66.092 50.84,66.133C50.774,66.164 50.71,66.194 50.644,66.225L50.517,66.283C50.451,66.313 50.382,66.343 50.316,66.374C50.227,66.412 50.136,66.454 50.045,66.492C49.863,66.572 49.678,66.65 49.493,66.724C49.399,66.763 49.305,66.801 49.211,66.837C49.032,66.909 48.85,66.981 48.668,67.05L48.662,67.05C48.483,67.119 48.301,67.185 48.118,67.249L48.082,67.262C47.997,67.293 47.911,67.323 47.823,67.354C47.732,67.384 47.641,67.414 47.552,67.447L47.279,67.536C47.254,67.544 47.229,67.552 47.202,67.561L47.025,67.616L46.879,67.663C46.73,67.71 46.583,67.754 46.434,67.798L46.335,67.828C46.274,67.845 46.214,67.864 46.153,67.881L45.943,67.939L45.775,67.986L45.664,68.016L45.523,68.052C45.366,68.093 45.206,68.135 45.046,68.173C45.007,68.184 44.966,68.193 44.927,68.204C44.872,68.218 44.814,68.231 44.756,68.245C44.709,68.256 44.662,68.267 44.615,68.278C44.604,68.281 44.59,68.284 44.579,68.287C44.508,68.303 44.433,68.32 44.361,68.336C44.229,68.367 44.096,68.394 43.961,68.422C43.834,68.449 43.707,68.474 43.583,68.499C43.481,68.519 43.376,68.538 43.274,68.557C43.21,68.568 43.147,68.579 43.083,68.59C43.02,68.601 42.97,68.612 42.912,68.621C42.829,68.634 42.749,68.648 42.666,68.662L42.426,68.701L42.396,68.706C42.296,68.72 42.2,68.737 42.103,68.75C42.007,68.764 41.913,68.778 41.822,68.789L41.761,68.797L41.529,68.828L41.512,68.828C41.446,68.836 41.383,68.844 41.319,68.853L41.148,68.872C40.98,68.891 40.809,68.91 40.637,68.927L40.596,68.927C40.541,68.938 40.483,68.944 40.428,68.949L40.281,68.963C40.223,68.968 40.165,68.974 40.107,68.977L39.933,68.991C39.704,69.007 39.472,69.024 39.243,69.037C39.141,69.043 39.039,69.049 38.937,69.054L38.763,69.06C38.719,69.06 38.675,69.062 38.63,69.065L38.462,69.071L38.291,69.071C38.233,69.073 38.175,69.079 38.117,69.079L38.056,69.079C37.96,69.079 37.863,69.082 37.769,69.082L37.143,69.082C33.877,69.043 30.636,68.499 27.536,67.47C27.426,67.431 27.312,67.395 27.202,67.356C27.147,67.337 27.092,67.318 27.039,67.298C26.987,67.279 26.929,67.26 26.876,67.24C26.788,67.21 26.7,67.177 26.611,67.144L26.501,67.102C26.401,67.066 26.302,67.028 26.205,66.992L26.156,66.973C26.117,66.959 26.078,66.942 26.043,66.928L26.004,66.912L25.974,66.901L25.907,66.876L25.847,66.851L25.833,66.851L25.805,66.837L25.681,66.788C25.629,66.766 25.573,66.744 25.521,66.721C25.433,66.686 25.344,66.65 25.256,66.611L25.242,66.611L25.065,66.534L24.858,66.443C19.318,64.002 14.589,60.033 11.23,54.995C11.205,54.959 11.18,54.923 11.158,54.884C7.765,49.722 5.952,43.685 5.938,37.51L5.938,37.041C5.938,36.922 5.943,36.803 5.946,36.684L5.946,36.657C6.043,33.132 6.727,29.645 7.975,26.346C8.019,26.23 8.063,26.117 8.108,26.001C8.146,25.899 8.188,25.797 8.229,25.695L8.315,25.488C8.362,25.375 8.408,25.261 8.458,25.148C8.511,25.024 8.566,24.9 8.621,24.776C8.624,24.767 8.629,24.759 8.632,24.751C8.635,24.743 8.64,24.729 8.646,24.718C8.685,24.632 8.723,24.547 8.762,24.461C8.762,24.461 8.762,24.455 8.765,24.453C8.8,24.373 8.836,24.295 8.872,24.218C8.883,24.196 8.892,24.171 8.903,24.149L8.919,24.11C8.936,24.072 8.955,24.033 8.974,23.997C8.985,23.972 8.996,23.947 9.008,23.925L9.041,23.854L9.071,23.793C9.112,23.705 9.157,23.616 9.201,23.528C9.209,23.514 9.215,23.498 9.223,23.484C9.281,23.368 9.339,23.252 9.397,23.139C9.438,23.059 9.48,22.976 9.521,22.896L9.549,22.846C9.549,22.846 9.549,22.841 9.551,22.838C9.551,22.838 9.551,22.832 9.554,22.832C9.579,22.783 9.604,22.738 9.629,22.691C9.637,22.675 9.648,22.658 9.656,22.642L9.711,22.54C9.728,22.507 9.747,22.473 9.764,22.44L9.797,22.382C9.827,22.322 9.861,22.264 9.891,22.206C10.876,20.422 12.033,18.741 13.344,17.184C13.366,17.157 13.391,17.129 13.411,17.101C13.885,16.491 14.103,15.716 14.015,14.948C13.927,14.178 13.54,13.474 12.939,12.986C12.337,12.497 11.569,12.265 10.796,12.337C10.026,12.409 9.314,12.781 8.812,13.372C7.707,14.683 6.694,16.066 5.78,17.516L5.758,17.549C5.678,17.676 5.601,17.803 5.521,17.927C5.48,17.993 5.441,18.059 5.4,18.128C4.188,20.132 3.166,22.247 2.349,24.444C1.941,25.543 1.585,26.658 1.284,27.787C1.278,27.807 1.273,27.826 1.267,27.848C1.239,27.947 1.215,28.049 1.187,28.152C1.179,28.179 1.173,28.207 1.165,28.237C1.151,28.29 1.137,28.345 1.124,28.4C1.11,28.455 1.096,28.508 1.082,28.563C1.055,28.671 1.03,28.778 1.005,28.889C1.005,28.897 0.999,28.908 0.999,28.916C0.997,28.933 0.991,28.947 0.988,28.963L0.988,28.974C0.972,29.043 0.955,29.112 0.939,29.179C0.933,29.198 0.93,29.217 0.925,29.234C-0.144,33.952 -0.29,38.832 0.497,43.605C0.502,43.641 0.508,43.68 0.516,43.718C1.328,48.577 3.089,53.225 5.703,57.399C5.747,57.468 5.792,57.54 5.836,57.609L5.96,57.802C6.001,57.868 6.043,57.932 6.084,57.995C6.145,58.089 6.206,58.18 6.266,58.274C6.302,58.33 6.338,58.382 6.374,58.434C6.388,58.456 6.404,58.478 6.418,58.501C6.479,58.592 6.542,58.683 6.606,58.774C6.62,58.793 6.633,58.813 6.645,58.832C6.65,58.843 6.658,58.851 6.664,58.862C6.672,58.873 6.678,58.882 6.686,58.893C6.747,58.984 6.81,59.075 6.874,59.163C6.951,59.274 7.028,59.381 7.108,59.492C7.186,59.599 7.266,59.71 7.346,59.817C7.412,59.908 7.478,59.997 7.542,60.085C7.572,60.127 7.602,60.168 7.636,60.209C7.688,60.278 7.74,60.347 7.793,60.416C7.826,60.458 7.856,60.502 7.892,60.543C7.942,60.61 7.994,60.673 8.044,60.739C8.072,60.775 8.099,60.811 8.127,60.844C8.182,60.916 8.24,60.985 8.295,61.057C8.331,61.101 8.364,61.145 8.4,61.187C8.45,61.247 8.5,61.311 8.552,61.371C8.588,61.416 8.624,61.457 8.66,61.499C8.709,61.562 8.765,61.623 8.817,61.686C8.853,61.73 8.892,61.775 8.93,61.819C8.98,61.88 9.032,61.94 9.085,62.001C9.168,62.1 9.253,62.197 9.339,62.291C9.424,62.387 9.518,62.492 9.609,62.594C9.7,62.694 9.797,62.804 9.894,62.906C9.99,63.011 10.084,63.113 10.181,63.216C10.277,63.318 10.374,63.42 10.473,63.522C12.511,65.639 14.791,67.511 17.27,69.09L17.328,69.126L17.526,69.25C21.25,71.596 25.361,73.269 29.667,74.189L29.866,74.23L30.048,74.266C30.178,74.291 30.305,74.318 30.435,74.343C30.498,74.357 30.564,74.368 30.628,74.379L30.727,74.396L30.827,74.412L31.031,74.448L31.081,74.456L31.152,74.47C31.227,74.484 31.301,74.495 31.379,74.509L31.652,74.553L31.928,74.594L32.204,74.636C32.295,74.65 32.389,74.661 32.48,74.674L32.756,74.71L32.93,74.732L33.109,74.754C33.162,74.76 33.217,74.768 33.27,74.774C33.383,74.788 33.493,74.799 33.606,74.81L33.849,74.835L33.996,74.848L34.2,74.868C34.55,74.901 34.904,74.926 35.257,74.948C35.395,74.956 35.533,74.964 35.671,74.97C35.9,74.981 36.132,74.992 36.361,74.997L36.452,74.997C36.593,75 36.734,75.003 36.872,75.006L37.949,75.006C38.092,75.006 38.233,75 38.377,74.997L38.407,74.997C38.553,74.995 38.697,74.989 38.843,74.984C38.917,74.981 38.992,74.978 39.067,74.975L39.29,74.964C39.426,74.959 39.564,74.95 39.699,74.942C39.9,74.931 40.099,74.917 40.301,74.903C40.519,74.887 40.734,74.868 40.949,74.848C41.178,74.829 41.408,74.804 41.634,74.779C41.714,74.771 41.794,74.76 41.877,74.752C41.96,74.743 42.04,74.732 42.12,74.721L42.214,74.71C42.291,74.702 42.368,74.691 42.443,74.68C42.536,74.669 42.633,74.655 42.727,74.641L42.782,74.633C42.89,74.616 42.998,74.603 43.108,74.583L43.147,74.578L43.356,74.545L43.555,74.512L43.674,74.492L43.693,74.492C43.845,74.465 43.994,74.44 44.146,74.412L44.173,74.407C44.262,74.39 44.35,74.374 44.439,74.357C48.847,73.534 53.068,71.922 56.905,69.601C56.974,69.559 57.04,69.518 57.109,69.476C57.325,69.344 57.54,69.209 57.75,69.073C57.833,69.021 57.913,68.968 57.993,68.916C59.268,68.082 60.491,67.171 61.656,66.191C62.255,65.686 62.628,64.963 62.694,64.182C62.76,63.401 62.514,62.625 62.012,62.026L62.001,62.026Z" style="fill:rgb(16,102,223);fill-rule:nonzero;"/>
        </g>
        <g transform="matrix(1.27981,0,0,1.27981,7.87607,0.00696795)">
            <path d="M20.177,10.584C20.698,10.584 21.212,10.446 21.662,10.181C22.247,9.841 22.846,9.518 23.45,9.217C23.773,9.057 24.099,8.903 24.428,8.753C24.494,8.723 24.56,8.693 24.624,8.665C24.69,8.635 24.756,8.607 24.822,8.577C24.867,8.557 24.911,8.538 24.958,8.519C25.046,8.48 25.132,8.444 25.22,8.406L25.416,8.323C25.548,8.268 25.684,8.212 25.816,8.16L25.968,8.099L26.219,8C26.28,7.975 26.341,7.953 26.401,7.931C26.689,7.823 26.976,7.721 27.268,7.622L27.439,7.564C27.779,7.451 28.124,7.34 28.469,7.238L28.64,7.188C29.087,7.059 29.535,6.94 29.987,6.829L30.136,6.794L30.31,6.752L30.429,6.725L30.556,6.694C30.639,6.675 30.724,6.656 30.807,6.639C30.934,6.611 31.061,6.584 31.191,6.559L31.403,6.517C31.691,6.462 31.978,6.41 32.265,6.36C32.403,6.338 32.544,6.313 32.682,6.294C32.822,6.272 32.963,6.252 33.109,6.23L33.14,6.225C33.344,6.197 33.548,6.17 33.753,6.145C33.896,6.128 34.04,6.112 34.183,6.095C34.327,6.079 34.47,6.065 34.614,6.054C34.757,6.04 34.901,6.029 35.047,6.018C35.138,6.012 35.23,6.004 35.318,5.999C35.497,5.987 35.679,5.976 35.862,5.965C35.953,5.96 36.044,5.957 36.132,5.952C36.187,5.952 36.24,5.946 36.295,5.946L36.444,5.941L36.786,5.929C36.902,5.927 37.018,5.924 37.132,5.924L37.54,5.924C38.843,5.924 40.146,6.004 41.438,6.167C41.711,6.2 41.984,6.239 42.258,6.28C42.316,6.288 42.376,6.299 42.437,6.308C42.536,6.324 42.636,6.341 42.738,6.357L42.796,6.368L42.846,6.377C42.92,6.391 42.998,6.402 43.072,6.415L43.147,6.429L43.345,6.468L43.533,6.504C43.599,6.515 43.666,6.529 43.729,6.542L43.782,6.553C43.931,6.584 44.082,6.617 44.231,6.65L44.37,6.68C44.474,6.702 44.577,6.727 44.681,6.752C44.803,6.78 44.924,6.81 45.046,6.84C45.159,6.868 45.272,6.898 45.385,6.926L45.507,6.959L45.637,6.992L45.642,6.992C45.725,7.014 45.808,7.036 45.888,7.059C45.899,7.059 45.91,7.064 45.921,7.067C45.96,7.078 45.998,7.089 46.034,7.1C46.087,7.114 46.139,7.13 46.191,7.144L46.321,7.18C46.382,7.197 46.443,7.216 46.503,7.232L46.647,7.277L46.777,7.315L46.837,7.335L46.843,7.335L46.917,7.357L47.075,7.406L47.174,7.437L47.304,7.478C47.381,7.503 47.456,7.528 47.533,7.553C47.649,7.591 47.765,7.633 47.881,7.671C48.392,7.851 48.897,8.041 49.399,8.246L49.57,8.317C49.695,8.37 49.819,8.419 49.943,8.475C50.368,8.657 50.777,8.869 51.169,9.115C54.807,11.398 56.35,16.066 54.605,20.135C53.675,22.299 51.925,24.005 49.739,24.88C47.552,25.755 45.106,25.725 42.942,24.798C41.267,24.08 39.464,23.699 37.639,23.677L37.634,23.677C37.104,23.671 36.577,23.696 36.049,23.751C35.812,23.776 35.577,23.809 35.34,23.845C35.235,23.862 35.127,23.881 35.022,23.9L34.929,23.917C34.89,23.925 34.849,23.931 34.81,23.939C34.752,23.95 34.691,23.961 34.633,23.975L34.622,23.975C34.559,23.991 34.498,24.005 34.435,24.019L34.285,24.055L34.197,24.077L34.054,24.113C34.009,24.124 33.962,24.138 33.918,24.149L33.824,24.174C33.634,24.226 33.443,24.284 33.256,24.345C33.181,24.37 33.104,24.395 33.029,24.419L32.916,24.458C32.878,24.472 32.842,24.483 32.803,24.499L32.693,24.541C32.582,24.582 32.469,24.624 32.361,24.668C31.809,24.889 31.271,25.145 30.752,25.435C30.719,25.455 30.683,25.474 30.65,25.493C30.581,25.532 30.512,25.573 30.443,25.612C30.374,25.653 30.308,25.692 30.238,25.736C30.172,25.778 30.112,25.816 30.048,25.858C29.993,25.893 29.938,25.929 29.882,25.965C29.844,25.99 29.808,26.015 29.769,26.04C29.747,26.054 29.728,26.067 29.706,26.084C29.684,26.101 29.653,26.12 29.626,26.139C29.598,26.158 29.562,26.183 29.532,26.205C29.468,26.25 29.405,26.294 29.344,26.341C29.283,26.385 29.217,26.435 29.154,26.481C29.123,26.504 29.093,26.528 29.06,26.55C28.4,27.058 27.79,27.624 27.235,28.243C27.23,28.248 27.224,28.254 27.219,28.259C27.172,28.312 27.125,28.364 27.078,28.419C27.034,28.469 26.989,28.521 26.945,28.574C26.929,28.593 26.912,28.613 26.895,28.632C26.84,28.698 26.785,28.764 26.733,28.831C26.713,28.853 26.697,28.875 26.68,28.897C26.633,28.955 26.589,29.013 26.545,29.071C26.512,29.112 26.482,29.154 26.448,29.195C26.36,29.311 26.274,29.427 26.192,29.546L26.192,29.548C25.568,30.434 25.052,31.39 24.654,32.397C24.654,32.403 24.651,32.405 24.648,32.411C24.632,32.452 24.615,32.494 24.599,32.535L24.552,32.657C24.541,32.687 24.527,32.72 24.516,32.753C24.505,32.784 24.488,32.831 24.475,32.872C24.458,32.919 24.441,32.969 24.425,33.016C24.408,33.065 24.392,33.118 24.375,33.167C23.644,35.368 23.481,37.717 23.909,39.997C23.923,40.08 23.939,40.16 23.958,40.243C24.301,41.954 24.969,43.583 25.927,45.043L26.004,45.162C26.981,46.636 28.237,47.903 29.7,48.897C29.747,48.927 29.794,48.96 29.841,48.99C31.666,50.211 33.755,50.975 35.936,51.218C35.989,51.224 36.041,51.229 36.094,51.235L36.234,51.249L36.301,51.254C37.176,51.331 38.056,51.326 38.931,51.232C38.964,51.229 39,51.224 39.033,51.218L39.042,51.218C40.866,51.014 42.63,50.448 44.231,49.556C44.571,49.366 44.869,49.112 45.109,48.808C45.35,48.502 45.529,48.154 45.634,47.779C45.739,47.403 45.772,47.014 45.725,46.628C45.678,46.241 45.559,45.868 45.369,45.529C45.178,45.189 44.924,44.891 44.618,44.651C44.314,44.411 43.964,44.231 43.588,44.127C43.216,44.022 42.824,43.989 42.437,44.035C42.051,44.082 41.678,44.201 41.339,44.392C39.898,45.192 38.241,45.523 36.601,45.336L36.516,45.325C36.466,45.319 36.417,45.311 36.367,45.305C36.317,45.297 36.262,45.292 36.207,45.28C36.14,45.269 36.077,45.258 36.011,45.245C35.909,45.225 35.806,45.203 35.707,45.178C35.677,45.173 35.649,45.164 35.622,45.159L35.522,45.134C35.489,45.126 35.459,45.118 35.423,45.109L35.323,45.082C35.296,45.073 35.268,45.065 35.241,45.057L35.133,45.024C35.069,45.004 35.006,44.982 34.942,44.963C34.912,44.952 34.879,44.941 34.849,44.93C34.785,44.908 34.722,44.883 34.661,44.861C34.567,44.825 34.473,44.786 34.382,44.748L34.31,44.717L34.236,44.684L34.161,44.648L34.045,44.593C32.855,44.011 31.828,43.141 31.058,42.059C31.036,42.026 31.014,41.993 30.992,41.96C30.97,41.926 30.948,41.896 30.929,41.866C30.907,41.833 30.89,41.808 30.873,41.78C30.073,40.538 29.634,39.1 29.604,37.623L29.604,37.363C29.604,37.325 29.604,37.281 29.606,37.236C29.609,37.195 29.609,37.154 29.612,37.109C29.612,37.079 29.612,37.049 29.617,37.018L29.623,36.927C29.628,36.853 29.634,36.778 29.642,36.706C29.645,36.673 29.648,36.643 29.653,36.61C29.659,36.552 29.667,36.494 29.675,36.433C29.681,36.389 29.686,36.345 29.695,36.301C29.7,36.267 29.706,36.234 29.711,36.201C29.722,36.14 29.731,36.08 29.744,36.019C29.755,35.958 29.766,35.903 29.778,35.845C29.791,35.787 29.805,35.718 29.819,35.655C29.83,35.613 29.838,35.572 29.849,35.528C29.858,35.494 29.866,35.464 29.874,35.428C29.893,35.359 29.913,35.29 29.932,35.221C30.02,34.934 30.123,34.65 30.241,34.374C30.39,34.023 30.567,33.686 30.766,33.361C30.796,33.311 30.827,33.261 30.86,33.212C30.89,33.162 30.929,33.104 30.967,33.051C30.989,33.016 31.017,32.982 31.039,32.949C31.078,32.894 31.116,32.842 31.155,32.789L31.216,32.706C31.238,32.676 31.26,32.648 31.282,32.621C31.31,32.585 31.337,32.549 31.368,32.513C31.395,32.477 31.426,32.441 31.453,32.408L31.542,32.306C31.591,32.245 31.646,32.187 31.702,32.129L31.713,32.118C31.773,32.052 31.834,31.989 31.898,31.925C31.945,31.875 31.994,31.828 32.047,31.782L32.085,31.746C32.386,31.461 32.712,31.202 33.054,30.967C33.121,30.923 33.187,30.879 33.25,30.837C33.283,30.815 33.317,30.793 33.355,30.771C33.394,30.746 33.432,30.722 33.471,30.7C33.51,30.677 33.548,30.653 33.59,30.63C34.004,30.396 34.437,30.197 34.887,30.037C34.951,30.015 35.017,29.993 35.08,29.971C35.125,29.957 35.166,29.943 35.21,29.929C35.254,29.916 35.296,29.904 35.34,29.891C35.384,29.88 35.428,29.866 35.472,29.855C35.517,29.844 35.558,29.833 35.599,29.822C35.693,29.799 35.787,29.777 35.881,29.758C35.922,29.75 35.961,29.742 36.002,29.733L36.094,29.717L36.187,29.7C36.248,29.689 36.306,29.681 36.367,29.673L36.372,29.673C36.748,29.617 37.126,29.59 37.504,29.59L37.634,29.59C38.661,29.609 39.671,29.827 40.615,30.23C46.755,32.864 53.929,31.045 58.064,25.805C60.11,23.21 61.233,20.008 61.253,16.706L61.253,16.679C61.264,13.772 60.419,10.929 58.824,8.5C57.228,6.07 54.953,4.166 52.281,3.023C52.185,2.981 52.091,2.94 51.994,2.901C51.897,2.863 51.795,2.821 51.701,2.78C51.555,2.719 51.411,2.661 51.263,2.603C51.116,2.545 50.97,2.487 50.824,2.432L50.583,2.341C50.503,2.31 50.423,2.28 50.343,2.253C50.271,2.228 50.202,2.2 50.131,2.175L49.94,2.106L49.645,2.004C49.441,1.935 49.236,1.866 49.029,1.8L48.888,1.753L48.72,1.698L48.466,1.618L48.295,1.565L48.143,1.521L47.928,1.457C47.784,1.416 47.638,1.375 47.494,1.333C47.395,1.306 47.296,1.278 47.196,1.253L46.915,1.179L46.904,1.179L46.843,1.162C46.68,1.121 46.52,1.079 46.357,1.041L46.191,1.002L45.998,0.955C45.899,0.933 45.805,0.911 45.708,0.889L45.686,0.883L45.396,0.82C45.195,0.776 44.993,0.734 44.792,0.693L44.615,0.66C44.53,0.643 44.444,0.627 44.358,0.61C44.301,0.599 44.243,0.588 44.187,0.577L43.942,0.533L43.853,0.516C43.66,0.483 43.467,0.453 43.274,0.42C43.069,0.386 42.868,0.356 42.664,0.328L42.421,0.295L42.283,0.279C42.266,0.279 42.249,0.273 42.233,0.273L42.067,0.251L41.907,0.232L41.797,0.218L41.584,0.193L41.518,0.185C41.432,0.177 41.347,0.166 41.258,0.157L41.018,0.135L40.935,0.127L40.698,0.105C40.604,0.097 40.51,0.088 40.417,0.083C39.991,0.05 39.566,0.025 39.138,0.005L39.042,0.005L38.987,0.003L38.78,-0.006L38.487,-0.014C38.269,-0.019 38.054,-0.022 37.838,-0.025L37.203,-0.025C37.112,-0.025 37.024,-0.025 36.933,-0.022C36.842,-0.019 36.759,-0.019 36.673,-0.017C36.588,-0.017 36.502,-0.014 36.414,-0.011C36.289,-0.008 36.163,-0.003 36.038,0.003L35.82,0.011L35.721,0.017L35.558,0.025L35.345,0.036L35.152,0.047L35.125,0.047C33.421,0.155 31.729,0.378 30.059,0.718L29.998,0.729C29.863,0.756 29.728,0.787 29.59,0.814L29.568,0.82C29.507,0.834 29.446,0.845 29.386,0.858C28.787,0.991 28.193,1.137 27.602,1.297C24.632,2.109 21.775,3.285 19.094,4.8L18.805,4.966L18.689,5.032L18.589,5.093C18.048,5.435 17.631,5.946 17.405,6.548C17.179,7.147 17.154,7.807 17.33,8.422C17.51,9.038 17.885,9.579 18.396,9.965C18.909,10.349 19.533,10.559 20.177,10.556L20.179,10.556L20.177,10.584Z" style="fill:rgb(16,102,223);fill-rule:nonzero;"/>
        </g>
        <g transform="matrix(1.27981,0,0,1.27981,7.87607,0.00696795)">
            <path d="M15.647,24.063C15.647,24.063 15.63,24.091 15.622,24.105C14.653,25.684 13.858,27.365 13.253,29.115C13.007,29.825 12.795,30.545 12.613,31.271C12.61,31.285 12.604,31.299 12.602,31.312C12.588,31.37 12.574,31.428 12.56,31.486C12.555,31.514 12.546,31.544 12.541,31.572C12.527,31.627 12.516,31.682 12.502,31.738C11.785,34.843 11.655,38.054 12.116,41.206C12.127,41.278 12.138,41.35 12.149,41.421C12.155,41.449 12.157,41.477 12.16,41.504C12.166,41.532 12.171,41.565 12.177,41.598C12.185,41.648 12.193,41.697 12.201,41.75L12.207,41.777C12.207,41.777 12.207,41.791 12.21,41.8C12.803,45.294 14.112,48.626 16.058,51.588L16.108,51.666C16.295,51.95 16.488,52.229 16.687,52.505C16.762,52.61 16.839,52.712 16.914,52.814C16.919,52.819 16.925,52.828 16.93,52.836C20.983,58.28 27.031,61.896 33.747,62.887L33.783,62.893L33.951,62.917L33.976,62.917L34.114,62.939L34.145,62.939L34.294,62.962C36.317,63.218 38.365,63.229 40.394,63L40.524,62.984C40.566,62.978 40.607,62.973 40.648,62.97L40.822,62.948L40.855,62.942L40.877,62.942L40.916,62.934L41.079,62.912L41.137,62.904C41.236,62.89 41.33,62.876 41.424,62.862L41.427,62.862C45.684,62.205 49.706,60.485 53.12,57.863C53.432,57.628 53.694,57.333 53.89,56.996C54.086,56.659 54.216,56.287 54.269,55.897C54.321,55.511 54.296,55.116 54.197,54.738C54.097,54.36 53.921,54.007 53.683,53.697C53.446,53.388 53.148,53.129 52.808,52.933C52.469,52.737 52.096,52.612 51.707,52.563C51.32,52.513 50.926,52.541 50.548,52.646C50.172,52.75 49.819,52.927 49.51,53.167C47.417,54.774 45.021,55.944 42.465,56.61C42.432,56.618 42.399,56.623 42.365,56.632C41.719,56.797 41.065,56.927 40.405,57.026L40.378,57.026C40.301,57.043 40.223,57.051 40.146,57.062L40.06,57.073C39.213,57.184 38.36,57.239 37.507,57.239L37.501,57.239C35.679,57.239 33.866,56.988 32.11,56.491L32.093,56.485C31.958,56.447 31.82,56.405 31.685,56.364C31.484,56.303 31.285,56.237 31.086,56.168C30.984,56.132 30.882,56.096 30.779,56.06L30.647,56.011L30.608,55.997C30.531,55.969 30.454,55.939 30.377,55.908L30.31,55.884L30.194,55.837L30.164,55.826L30.158,55.826C30.081,55.795 30.004,55.765 29.927,55.732L29.869,55.707L29.805,55.679C29.689,55.63 29.576,55.58 29.46,55.53L29.366,55.489C26.04,53.976 23.196,51.575 21.148,48.549L21.099,48.477L21.013,48.347L20.938,48.231C18.901,45.079 17.802,41.413 17.764,37.659L17.764,37.405C17.764,37.303 17.764,37.201 17.767,37.098L17.767,37.074C17.775,36.687 17.794,36.303 17.825,35.922C17.827,35.881 17.83,35.84 17.836,35.801C17.836,35.782 17.838,35.762 17.841,35.743C18.026,33.67 18.54,31.641 19.359,29.731C19.718,28.894 20.132,28.083 20.602,27.304C20.613,27.285 20.624,27.266 20.635,27.249C20.654,27.216 20.676,27.18 20.695,27.147C21.046,26.584 21.424,26.034 21.836,25.502C22.885,24.132 24.11,22.909 25.477,21.858C25.882,21.546 26.297,21.25 26.722,20.974C27.083,20.74 27.456,20.516 27.837,20.301C29.957,19.114 32.276,18.327 34.68,17.974C35.613,17.841 36.555,17.775 37.499,17.775L37.504,17.775C37.576,17.775 37.648,17.772 37.722,17.767L37.736,17.767C40.287,17.797 42.807,18.324 45.154,19.321C45.195,19.337 45.236,19.354 45.278,19.373L45.283,19.373C46.004,19.685 46.818,19.696 47.55,19.404C48.278,19.114 48.864,18.542 49.173,17.822C49.482,17.101 49.493,16.284 49.2,15.556C48.911,14.827 48.339,14.244 47.619,13.932L47.613,13.932C47.169,13.739 46.721,13.562 46.269,13.397C42.28,11.939 37.993,11.5 33.794,12.119L33.692,12.135L33.529,12.16L33.499,12.166L33.377,12.185C29.849,12.754 26.479,14.059 23.489,16.017L23.467,16.03C23.423,16.061 23.376,16.088 23.332,16.119L23.194,16.21C23.163,16.232 23.133,16.251 23.103,16.273C20.397,18.098 18.073,20.428 16.248,23.133C16.21,23.188 16.174,23.244 16.138,23.299C16.102,23.354 16.061,23.415 16.022,23.473L16,23.506C15.961,23.566 15.92,23.63 15.881,23.691L15.812,23.798C15.787,23.837 15.762,23.876 15.74,23.914C15.727,23.936 15.713,23.958 15.699,23.978L15.649,24.055L15.644,24.069L15.647,24.063Z" style="fill:rgb(16,102,223);fill-rule:nonzero;"/>
        </g>
    </g>
</svg>
